<?xml version="1.0" standalone="no"?>
<!DOCTYPE svg PUBLIC "-//W3C//DTD SVG 20010904//EN"
 "http://www.w3.org/TR/2001/REC-SVG-20010904/DTD/svg10.dtd">
<svg version="1.0" xmlns="http://www.w3.org/2000/svg"
 width="500.000000pt" height="500.000000pt" viewBox="0 0 500.000000 500.000000"
 preserveAspectRatio="xMidYMid meet">

<g transform="translate(0.000000,500.000000) scale(0.100000,-0.100000)"
fill="#000000" stroke="none">
<path d="M1170 2446 l0 -2116 773 0 c834 0 1034 7 1225 46 345 69 596 219 777
466 259 351 275 952 34 1312 -132 197 -339 328 -639 401 -36 9 -71 18 -79 21
-8 3 18 24 65 53 157 97 275 226 349 384 80 169 109 352 94 583 -21 318 -128
540 -333 695 -158 120 -352 198 -616 246 -71 14 -211 17 -867 20 l-783 4 0
-2115z m1342 1345 c244 -64 353 -211 335 -454 -21 -290 -205 -422 -597 -430
l-125 -2 -3 459 -2 459 157 -6 c110 -4 182 -12 235 -26z m218 -1736 c109 -25
210 -75 276 -137 94 -89 134 -197 134 -363 0 -152 -37 -244 -129 -327 -129
-117 -337 -162 -706 -156 l-180 3 -3 504 -2 503 267 -5 c202 -4 287 -9 343
-22z"/>
</g>
</svg>
