<?xml version="1.0" standalone="no"?>
<!DOCTYPE svg PUBLIC "-//W3C//DTD SVG 20010904//EN"
 "http://www.w3.org/TR/2001/REC-SVG-20010904/DTD/svg10.dtd">
<svg version="1.0" xmlns="http://www.w3.org/2000/svg"
 width="225.000000pt" height="225.000000pt" viewBox="0 0 225.000000 225.000000"
 preserveAspectRatio="xMidYMid meet">

<g transform="translate(0.000000,225.000000) scale(0.100000,-0.100000)"
fill="#000000" stroke="none">
<path d="M1004 2176 c-3 -8 -4 -31 -2 -52 3 -35 6 -39 31 -40 23 -1 27 3 27
27 0 22 -5 29 -20 29 -12 0 -20 7 -20 16 0 13 3 14 14 5 16 -13 32 2 21 19 -9
15 -45 12 -51 -4z"/>
<path d="M1126 2143 c-7 -50 -1 -66 15 -43 8 11 12 12 16 3 10 -25 23 -12 23
21 0 47 -9 66 -30 66 -13 0 -19 -11 -24 -47z"/>
<path d="M1255 2180 c-12 -20 -17 -100 -6 -100 6 0 11 6 11 14 0 8 5 18 11 22
6 4 9 -1 7 -12 -1 -11 2 -21 7 -24 10 -5 28 77 20 90 -7 12 -44 19 -50 10z
m35 -24 c0 -3 -4 -8 -10 -11 -5 -3 -10 -1 -10 4 0 6 5 11 10 11 6 0 10 -2 10
-4z"/>
<path d="M887 2163 c-4 -3 -7 -26 -7 -49 0 -44 15 -67 26 -39 5 11 10 13 19 5
21 -17 24 0 8 46 -14 41 -30 54 -46 37z"/>
<path d="M754 2126 c-4 -9 0 -23 7 -32 7 -9 13 -26 14 -38 0 -26 33 -29 49 -3
8 14 8 21 -4 30 -8 7 -15 21 -15 32 0 25 -42 34 -51 11z"/>
<path d="M1446 2093 c-10 -30 -13 -50 -6 -57 9 -9 23 16 36 68 11 45 -14 36
-30 -11z"/>
<path d="M1520 2058 c-20 -46 -17 -65 6 -34 13 19 14 19 14 -7 0 -40 24 -33
45 13 18 39 13 69 -5 40 -8 -12 -10 -10 -10 8 0 37 -29 25 -50 -20z"/>
<path d="M1083 2052 c6 -9 64 -8 74 1 3 4 -13 7 -36 7 -23 0 -40 -3 -38 -8z"/>
<path d="M568 2044 c-8 -7 24 -104 34 -104 4 0 8 7 8 16 0 11 6 14 22 9 17 -6
20 -4 14 10 -17 45 -62 85 -78 69z"/>
<path d="M988 2043 c7 -3 16 -2 19 1 4 3 -2 6 -13 5 -11 0 -14 -3 -6 -6z"/>
<path d="M1238 2043 c7 -3 16 -2 19 1 4 3 -2 6 -13 5 -11 0 -14 -3 -6 -6z"/>
<path d="M1663 2033 c-7 -3 -13 -16 -13 -29 0 -14 -5 -23 -12 -21 -8 1 -13 -8
-13 -23 0 -20 5 -25 25 -25 20 0 26 6 30 29 3 17 10 29 15 27 6 -1 11 5 13 13
4 17 -26 36 -45 29z"/>
<path d="M780 1990 c-9 -6 -10 -10 -3 -10 6 0 15 5 18 10 8 12 4 12 -15 0z"/>
<path d="M457 1963 c-14 -17 -13 -21 18 -57 29 -34 35 -38 49 -27 21 18 20 37
-5 72 -23 33 -39 36 -62 12z m63 -56 c0 -6 -9 -2 -20 8 -11 10 -20 23 -20 28
0 6 9 2 20 -8 11 -10 20 -23 20 -28z"/>
<path d="M715 1960 c-3 -6 1 -7 9 -4 18 7 21 14 7 14 -6 0 -13 -4 -16 -10z"/>
<path d="M1770 1957 c0 -8 -11 -29 -25 -45 -45 -54 -21 -60 29 -7 32 33 32 35
14 51 -16 15 -18 15 -18 1z"/>
<path d="M1520 1956 c0 -2 7 -7 16 -10 8 -3 12 -2 9 4 -6 10 -25 14 -25 6z"/>
<path d="M634 1914 c-18 -14 -18 -15 4 -4 12 6 22 13 22 15 0 8 -5 6 -26 -11z"/>
<path d="M1595 1915 c11 -9 29 -21 40 -26 l20 -10 -20 16 c-11 9 -29 21 -40
26 l-20 10 20 -16z"/>
<path d="M380 1892 c0 -4 6 -14 13 -22 10 -12 9 -12 -5 -1 -19 14 -38 7 -38
-13 0 -17 65 -78 73 -69 4 3 -3 18 -15 32 l-23 25 29 -18 c20 -13 31 -15 39
-7 8 8 2 21 -23 46 -33 34 -50 43 -50 27z"/>
<path d="M589 1883 c-13 -16 -12 -17 4 -4 9 7 17 15 17 17 0 8 -8 3 -21 -13z"/>
<path d="M1823 1853 c-43 -51 -30 -64 18 -17 21 20 36 41 33 46 -9 14 -19 9
-51 -29z"/>
<path d="M549 1853 c-13 -16 -12 -17 4 -4 9 7 17 15 17 17 0 8 -8 3 -21 -13z"/>
<path d="M1670 1866 c0 -2 8 -10 18 -17 15 -13 16 -12 3 4 -13 16 -21 21 -21
13z"/>
<path d="M465 1778 l-60 -63 63 60 c34 33 62 61 62 62 0 8 -10 -1 -65 -59z"/>
<path d="M1765 1780 c33 -33 62 -60 64 -60 3 0 -21 27 -54 60 -33 33 -62 60
-64 60 -3 0 21 -27 54 -60z"/>
<path d="M1893 1783 c-32 -30 -42 -53 -24 -53 5 0 15 7 22 17 8 9 26 21 42 28
26 11 26 12 10 26 -16 13 -21 11 -50 -18z"/>
<path d="M284 1786 c-4 -10 5 -31 20 -51 27 -35 53 -48 42 -20 -4 10 1 15 15
15 30 0 20 17 -29 46 -36 22 -43 23 -48 10z"/>
<path d="M1958 1704 c-40 -26 -51 -60 -22 -71 15 -6 41 5 78 32 34 25 6 31
-35 7 -21 -12 -39 -18 -39 -12 0 5 3 10 8 10 4 0 20 11 36 23 40 32 20 40 -26
11z"/>
<path d="M389 1693 c-29 -35 -41 -53 -36 -53 2 0 17 16 31 35 28 36 31 49 5
18z"/>
<path d="M1830 1706 c0 -2 8 -10 18 -17 15 -13 16 -12 3 4 -13 16 -21 21 -21
13z"/>
<path d="M220 1693 c0 -5 6 -15 13 -22 10 -11 8 -12 -9 -7 -15 4 -24 2 -28 -9
-4 -10 8 -23 35 -41 46 -29 67 -23 29 7 l-25 20 25 -7 c40 -10 45 -10 45 4 0
8 -19 25 -42 39 -24 14 -43 21 -43 16z"/>
<path d="M1162 1680 c-15 -25 -15 -47 0 -56 8 -5 9 0 6 14 -4 13 -1 22 5 22
15 0 18 -50 3 -51 -6 0 -25 -21 -42 -47 -35 -54 -61 -62 -56 -18 2 22 0 27
-12 23 -12 -5 -26 11 -26 29 0 14 35 0 55 -23 23 -27 24 -27 25 -7 0 12 -8 25
-17 28 -12 5 -14 9 -5 18 18 18 15 28 -8 28 -11 0 -23 -6 -26 -14 -3 -8 -13
-12 -25 -9 -24 7 -25 -13 0 -53 18 -30 18 -30 -5 -53 -13 -13 -24 -27 -24 -32
0 -13 18 -11 23 4 4 9 8 8 16 -3 10 -13 13 -13 25 3 8 10 23 18 33 17 34 -4
43 0 43 19 0 11 10 27 22 36 21 14 24 14 35 -2 12 -16 13 -16 13 1 0 10 -9 20
-20 23 -18 5 -18 7 -5 33 13 25 13 32 -1 59 -9 17 -16 31 -17 31 -1 0 -8 -9
-15 -20z"/>
<path d="M1025 1650 c4 -6 11 -8 16 -5 14 9 11 15 -7 15 -8 0 -12 -5 -9 -10z"/>
<path d="M1552 1610 c-58 -55 6 -160 78 -130 46 19 64 54 50 96 -18 54 -87 72
-128 34z m87 -24 c7 -8 11 -27 9 -43 -6 -51 -88 -41 -88 11 0 42 53 63 79 32z"/>
<path d="M1900 1610 c6 -11 13 -20 16 -20 2 0 0 9 -6 20 -6 11 -13 20 -16 20
-2 0 0 -9 6 -20z"/>
<path d="M2050 1607 c0 -7 -16 -21 -35 -30 -35 -17 -47 -37 -22 -37 7 0 22 7
33 15 10 8 29 15 41 15 20 0 21 2 11 25 -12 27 -28 33 -28 12z"/>
<path d="M302 1561 c-12 -21 -22 -43 -22 -47 0 -5 12 11 25 35 14 24 24 45 22
47 -2 2 -13 -14 -25 -35z"/>
<path d="M1931 1560 c14 -31 19 -36 19 -24 0 6 -7 19 -16 30 -14 18 -14 18 -3
-6z"/>
<path d="M147 1564 c-13 -13 -8 -21 31 -48 43 -30 57 -33 48 -11 -3 9 0 15 9
15 26 0 16 27 -12 34 -16 3 -37 8 -48 11 -11 4 -24 3 -28 -1z"/>
<path d="M1240 1555 c7 -8 17 -15 22 -15 6 0 5 7 -2 15 -7 8 -17 15 -22 15 -6
0 -5 -7 2 -15z"/>
<path d="M1171 1536 c-8 -9 -11 -19 -7 -23 9 -9 29 13 24 27 -2 8 -8 7 -17 -4z"/>
<path d="M1184 1497 c-15 -17 -15 -19 -2 -8 9 7 22 10 28 6 5 -3 10 -2 10 4 0
20 -18 20 -36 -2z"/>
<path d="M1950 1511 c0 -6 4 -13 10 -16 6 -3 7 1 4 9 -7 18 -14 21 -14 7z"/>
<path d="M2063 1492 c-45 -17 -63 -49 -20 -36 42 13 78 35 72 44 -4 6 -7 10
-8 9 -1 0 -21 -8 -44 -17z"/>
<path d="M113 1457 c3 -9 2 -19 -3 -22 -24 -15 -6 -25 45 -25 30 0 55 4 55 8
0 7 -37 26 -94 51 -5 2 -6 -3 -3 -12z"/>
<path d="M825 1413 c-87 -11 -235 -35 -296 -49 -68 -15 -69 -16 -69 -49 0 -49
38 -230 65 -310 25 -74 53 -145 58 -145 4 0 436 436 497 503 l53 57 -139 -1
c-76 -1 -152 -4 -169 -6z"/>
<path d="M1309 1239 c259 -273 362 -379 366 -379 10 0 46 83 65 151 23 82 50
244 50 300 0 36 0 36 -57 48 -133 25 -342 51 -466 58 l-132 6 174 -184z"/>
<path d="M2084 1409 c-37 -10 -48 -30 -30 -54 10 -14 18 -15 53 -6 45 12 55
26 41 54 -10 19 -18 20 -64 6z m31 -29 c-11 -5 -27 -9 -35 -9 -13 -1 -13 0 0
9 8 5 24 9 35 9 l20 0 -20 -9z"/>
<path d="M80 1340 c0 -22 4 -26 46 -41 45 -17 61 -15 44 6 -8 9 -6 14 5 19 9
3 13 10 10 16 -8 13 -105 13 -105 0z"/>
<path d="M1100 1320 c-24 -24 -25 -48 -4 -78 30 -43 104 -16 104 38 0 21 -41
60 -63 60 -9 0 -26 -9 -37 -20z"/>
<path d="M2103 1293 c-37 -5 -45 -23 -10 -24 l22 0 -23 -11 c-13 -7 -21 -18
-20 -27 4 -17 8 -17 73 -6 37 6 38 8 20 21 -10 8 -13 14 -7 14 7 0 12 9 12 20
0 20 -2 21 -67 13z"/>
<path d="M200 1264 c0 -8 5 -12 10 -9 6 3 10 10 10 16 0 5 -4 9 -10 9 -5 0
-10 -7 -10 -16z"/>
<path d="M2031 1254 c0 -11 3 -14 6 -6 3 7 2 16 -1 19 -3 4 -6 -2 -5 -13z"/>
<path d="M72 1232 c-8 -5 -12 -20 -10 -33 3 -22 8 -24 53 -24 50 0 66 14 47
42 -10 15 -74 26 -90 15z m68 -30 c0 -5 -13 -7 -30 -4 -16 2 -30 6 -30 8 0 2
14 4 30 4 17 0 30 -4 30 -8z"/>
<path d="M958 1193 c-26 -31 -29 -42 -17 -65 15 -29 28 -38 55 -38 50 0 73 76
32 104 -29 21 -51 20 -70 -1z"/>
<path d="M1245 1185 c-14 -13 -25 -28 -25 -33 0 -21 43 -62 64 -62 52 0 76 75
34 104 -31 22 -45 20 -73 -9z"/>
<path d="M21 1154 c0 -11 3 -14 6 -6 3 7 2 16 -1 19 -3 4 -6 -2 -5 -13z"/>
<path d="M900 941 l-234 -228 58 -79 c32 -44 135 -154 227 -246 93 -92 169
-170 169 -172 0 -3 -8 -7 -17 -10 -10 -2 -4 -4 12 -3 17 1 29 5 28 9 -1 3 50
57 114 120 136 133 284 299 277 310 -3 4 -25 8 -50 8 -24 0 -44 2 -44 5 0 10
45 75 52 75 3 0 16 -16 28 -35 26 -42 33 -43 54 -10 l17 26 -223 229 c-123
127 -225 230 -228 230 -3 -1 -111 -104 -240 -229z m268 70 c12 -21 22 -41 22
-45 0 -3 -22 -6 -50 -6 -27 0 -50 5 -50 10 0 12 43 80 51 80 3 0 15 -17 27
-39z m-179 -173 l23 -38 -56 0 c-31 0 -56 2 -56 5 0 15 54 85 60 78 4 -4 17
-25 29 -45z m176 15 c14 -21 25 -41 25 -45 0 -5 -25 -8 -55 -8 l-55 0 28 45
c15 25 28 45 29 45 1 0 14 -17 28 -37z m183 -3 c12 -21 22 -41 22 -44 0 -4
-22 -6 -50 -6 -27 0 -50 2 -50 6 0 9 45 84 50 84 3 0 15 -18 28 -40z m-364
-198 c-13 -2 -37 -2 -54 0 l-30 3 26 44 27 43 27 -43 27 -44 -23 -3z m-175 38
l22 -40 -57 0 c-43 0 -54 3 -47 13 5 6 17 24 26 40 10 15 21 27 25 27 5 0 18
-18 31 -40z m361 0 l20 -40 -50 0 c-27 0 -50 3 -50 6 0 13 42 74 51 74 5 0 18
-18 29 -40z m179 6 c12 -18 21 -36 21 -40 0 -3 -22 -6 -50 -6 -27 0 -50 2 -50
4 0 11 43 76 50 76 5 0 18 -15 29 -34z m-99 -105 c0 -4 -21 -7 -47 -7 -36 1
-48 -3 -48 -14 0 -9 11 -16 30 -18 62 -5 75 -12 75 -36 0 -15 -9 -27 -25 -34
-41 -19 -105 -13 -105 9 0 6 9 5 20 -1 21 -11 67 -7 83 9 15 15 -1 31 -31 31
-42 0 -70 10 -76 27 -8 20 10 41 37 45 31 4 87 -3 87 -11z m-172 -7 c30 -21
28 -58 -4 -83 -21 -16 -41 -21 -88 -21 l-62 0 0 60 1 60 65 0 c43 0 73 -5 88
-16z m267 -49 c0 -58 -2 -65 -20 -65 -18 0 -20 7 -20 65 0 58 2 65 20 65 18 0
20 -7 20 -65z m-200 -95 c5 -8 11 -7 21 1 9 7 14 8 14 1 0 -6 13 -13 30 -17
30 -6 30 -7 14 -37 -11 -21 -20 -28 -32 -23 -13 5 -13 2 3 -15 18 -20 18 -20
-8 -20 -37 0 -57 -10 -57 -29 0 -10 -5 -8 -13 9 -10 20 -19 24 -42 22 -26 -4
-27 -2 -16 12 9 10 22 14 37 10 16 -4 24 -2 24 6 0 9 -11 11 -35 7 -31 -5 -37
-3 -50 24 -14 26 -14 29 0 29 8 0 15 4 15 8 0 5 14 8 30 7 17 -1 33 2 36 7 7
11 21 10 29 -2z"/>
<path d="M950 540 l0 -50 43 0 c48 0 77 22 77 58 0 27 -28 42 -79 42 l-41 0 0
-50z"/>
<path d="M1140 360 c0 -5 7 -10 15 -10 8 0 15 5 15 10 0 6 -7 10 -15 10 -8 0
-15 -4 -15 -10z"/>
<path d="M2037 1151 c-2 -10 -1 -25 4 -32 6 -10 9 -4 9 19 0 36 -5 42 -13 13z"/>
<path d="M192 1130 c0 -19 2 -27 5 -17 2 9 2 25 0 35 -3 9 -5 1 -5 -18z"/>
<path d="M2075 1142 c-3 -9 1 -23 10 -31 12 -12 19 -13 34 -4 14 9 21 9 30 0
15 -15 44 13 36 35 -5 11 -20 16 -55 16 -35 0 -50 -5 -55 -16z"/>
<path d="M2212 1120 c0 -14 2 -19 5 -12 2 6 2 18 0 25 -3 6 -5 1 -5 -13z"/>
<path d="M807 1052 c-45 -50 13 -124 69 -88 31 21 39 52 20 81 -20 30 -65 33
-89 7z"/>
<path d="M1377 1052 c-31 -34 -16 -83 30 -97 17 -4 29 1 48 19 30 30 32 49 5
76 -25 25 -62 26 -83 2z"/>
<path d="M684 915 c-33 -50 17 -112 71 -87 54 25 35 112 -25 112 -20 0 -35 -8
-46 -25z"/>
<path d="M1506 919 c-30 -23 -33 -45 -10 -77 30 -43 104 -16 104 38 0 20 -36
60 -54 60 -7 0 -25 -9 -40 -21z"/>
<path d="M135 876 c-22 -6 -39 -15 -37 -19 1 -4 2 -14 2 -22 0 -8 5 -15 10
-15 6 0 10 7 10 15 0 18 30 20 30 3 0 -7 7 -4 16 7 13 17 16 18 25 5 8 -12 9
-10 7 9 -4 30 -12 33 -63 17z"/>
<path d="M2047 874 c-14 -15 -6 -25 38 -46 41 -20 77 -18 45 2 -13 8 -12 10 3
10 9 0 17 7 17 15 0 10 -10 15 -27 15 -16 0 -37 3 -48 6 -11 3 -24 2 -28 -2z"/>
<path d="M183 778 c-4 -7 -17 -13 -28 -13 -26 0 -27 -34 -2 -49 14 -9 21 -7
31 7 8 10 20 15 29 11 19 -7 30 10 22 36 -7 22 -40 27 -52 8z"/>
<path d="M2010 771 c0 -9 71 -41 90 -41 23 0 7 21 -26 35 -41 17 -64 19 -64 6z"/>
<path d="M1946 733 c-6 -14 -5 -15 5 -6 7 7 10 15 7 18 -3 3 -9 -2 -12 -12z"/>
<path d="M290 721 c0 -6 4 -13 10 -16 6 -3 7 1 4 9 -7 18 -14 21 -14 7z"/>
<path d="M1983 698 c-25 -32 -23 -38 18 -58 47 -25 69 -21 69 13 0 17 -10 28
-35 40 -43 20 -40 20 -52 5z m47 -33 c16 -9 19 -14 9 -15 -8 0 -24 7 -35 15
-24 18 -7 19 26 0z"/>
<path d="M244 675 c-11 -11 -29 -25 -40 -31 -33 -20 -5 -29 31 -10 18 10 38
15 44 12 15 -10 13 15 -2 34 -11 13 -15 13 -33 -5z"/>
<path d="M1880 620 c-12 -16 -19 -30 -16 -30 2 0 14 14 26 30 12 17 19 30 16
30 -2 0 -14 -13 -26 -30z"/>
<path d="M1930 614 c0 -4 8 -13 18 -20 15 -12 14 -13 -12 -11 -43 3 -42 -16 4
-48 44 -31 70 -26 30 6 l-25 19 28 -10 c28 -10 47 -6 47 9 0 8 -74 61 -85 61
-3 0 -5 -3 -5 -6z"/>
<path d="M277 575 c-42 -29 -44 -35 -19 -58 17 -15 21 -15 55 9 41 28 41 28
27 55 -14 24 -18 24 -63 -6z m28 -25 c-10 -11 -23 -20 -29 -20 -6 1 0 10 13
20 30 26 39 26 16 0z"/>
<path d="M380 576 c0 -2 8 -10 18 -17 15 -13 16 -12 3 4 -13 16 -21 21 -21 13z"/>
<path d="M1840 565 c-7 -9 -11 -17 -9 -20 3 -2 10 5 17 15 14 24 10 26 -8 5z"/>
<path d="M465 480 c33 -33 62 -60 64 -60 3 0 -21 27 -54 60 -33 33 -62 60 -64
60 -3 0 21 -27 54 -60z"/>
<path d="M1760 473 l-55 -58 58 55 c53 50 62 60 54 60 -1 0 -27 -26 -57 -57z"/>
<path d="M1860 511 c0 -16 71 -72 82 -64 8 4 -3 19 -27 40 -39 33 -55 40 -55
24z"/>
<path d="M316 451 c-4 -5 -2 -12 3 -15 5 -4 12 -2 15 3 4 5 2 12 -3 15 -5 4
-12 2 -15 -3z"/>
<path d="M430 427 c0 -8 -9 -22 -20 -32 -20 -18 -27 -45 -12 -45 15 0 74 69
67 79 -9 16 -35 13 -35 -2z"/>
<path d="M540 416 c0 -2 8 -10 18 -17 15 -13 16 -12 3 4 -13 16 -21 21 -21 13z"/>
<path d="M1679 403 c-13 -16 -12 -17 4 -4 16 13 21 21 13 21 -2 0 -10 -8 -17
-17z"/>
<path d="M1740 395 c-11 -13 -10 -20 6 -42 32 -42 51 -50 71 -30 16 16 16 17
-11 17 -23 0 -26 3 -21 22 6 16 4 20 -8 15 -20 -8 -29 3 -16 20 7 8 8 13 1 13
-5 0 -15 -7 -22 -15z"/>
<path d="M580 386 c0 -2 8 -10 18 -17 15 -13 16 -12 3 4 -13 16 -21 21 -21 13z"/>
<path d="M490 338 c-17 -23 -20 -35 -13 -47 17 -28 39 -23 67 14 22 29 25 39
16 50 -20 24 -44 17 -70 -17z m50 2 c0 -5 -5 -10 -11 -10 -5 0 -7 5 -4 10 3 6
8 10 11 10 2 0 4 -4 4 -10z"/>
<path d="M620 356 c0 -3 9 -10 20 -16 11 -6 20 -8 20 -6 0 3 -9 10 -20 16 -11
6 -20 8 -20 6z"/>
<path d="M1594 344 c-18 -14 -18 -15 4 -4 12 6 22 13 22 15 0 8 -5 6 -26 -11z"/>
<path d="M1653 333 c-19 -7 -16 -24 13 -66 25 -38 53 -43 34 -6 -7 13 -7 19 0
19 5 0 10 -4 10 -10 0 -5 7 -10 15 -10 21 0 19 13 -5 35 -11 10 -20 24 -20 32
0 13 -23 16 -47 6z"/>
<path d="M590 278 c-25 -41 -25 -55 -1 -67 14 -8 22 -6 35 8 9 9 16 22 16 28
0 6 6 13 13 16 9 3 9 9 1 23 -18 31 -42 28 -64 -8z m37 -10 c-3 -8 -6 -5 -6 6
-1 11 2 17 5 13 3 -3 4 -12 1 -19z m-17 -28 c0 -5 -5 -10 -11 -10 -5 0 -7 5
-4 10 3 6 8 10 11 10 2 0 4 -4 4 -10z"/>
<path d="M1510 300 c-9 -6 -10 -10 -3 -10 6 0 15 5 18 10 8 12 4 12 -15 0z"/>
<path d="M1554 275 c-19 -14 -19 -15 1 -52 21 -39 40 -49 64 -34 11 7 11 14 0
46 -17 45 -39 59 -65 40z m46 -64 c-1 -10 -6 -7 -15 9 -19 33 -18 50 0 26 8
-11 15 -27 15 -35z"/>
<path d="M706 244 c-19 -19 -30 -58 -22 -79 9 -25 40 -17 59 14 21 36 22 67 1
75 -21 8 -20 8 -38 -10z m19 -45 c-9 -17 -19 -29 -21 -26 -7 7 18 57 28 57 5
0 1 -14 -7 -31z"/>
<path d="M1450 216 c0 -7 7 -30 16 -51 10 -26 20 -35 30 -31 9 3 18 6 20 6 2
0 4 5 4 10 0 6 -6 10 -13 10 -7 0 -19 16 -26 35 -12 35 -31 48 -31 21z"/>
<path d="M1362 201 c-15 -9 -7 -101 9 -101 5 0 9 5 9 11 0 6 9 8 21 4 18 -6
20 -4 14 17 -8 24 -34 78 -38 78 -1 0 -8 -4 -15 -9z"/>
<path d="M891 181 c-6 -10 -12 -34 -13 -53 -3 -29 0 -33 24 -36 24 -3 28 1 38
39 10 38 10 45 -6 56 -24 17 -31 16 -43 -6z"/>
<path d="M1245 176 c-14 -10 -16 -21 -10 -54 8 -48 13 -53 43 -45 30 7 31 53
2 53 -11 0 -20 7 -20 15 0 9 6 12 15 9 9 -4 15 0 15 9 0 21 -25 28 -45 13z"/>
<path d="M1012 163 c-5 -10 -12 -33 -15 -51 -6 -30 -5 -33 13 -27 11 4 20 2
20 -4 0 -6 5 -11 11 -11 14 0 7 102 -8 107 -6 2 -16 -4 -21 -14z"/>
<path d="M1117 173 c-11 -10 -8 -103 3 -103 6 0 10 12 11 28 l1 27 10 -27 c17
-47 38 -35 38 22 0 48 -19 73 -21 28 -1 -21 -2 -20 -11 5 -10 27 -19 33 -31
20z"/>
<path d="M1069 31 c12 -8 51 -4 51 5 0 2 -15 4 -32 4 -23 0 -29 -3 -19 -9z"/>
</g>
</svg>
